<svg width="267" height="163" viewBox="0 0 267 163" fill="none" xmlns="http://www.w3.org/2000/svg">
<path fill-rule="evenodd" clip-rule="evenodd" d="M67.21 6.18214C67.21 2.76784 64.4422 4.75012e-06 61.0279 4.15315e-06L37.2747 0C33.8604 0 31.0925 2.76784 31.0925 6.18214L31.0925 25.5384C31.0925 28.9527 28.3247 31.7206 24.9104 31.7206L6.18213 31.7206C2.76783 31.7206 -1.52588e-05 34.4884 -1.52588e-05 37.9027V63.4412L-2.28882e-05 67.8381L-1.52588e-05 95.1618L-2.28882e-05 99.5588V125.097C-2.28882e-05 128.511 2.76781 131.279 6.18211 131.279H24.9104C28.3247 131.279 31.0925 134.047 31.0925 137.461L31.0925 156.818C31.0925 160.232 33.8603 163 37.2747 163H61.0279C64.4422 163 67.21 160.232 67.21 156.818L67.21 133.065C67.21 129.65 64.4422 126.883 61.0279 126.883L42.2996 126.882C38.8853 126.882 36.1175 124.115 36.1175 120.7V99.5588L36.1175 95.1618L36.1175 67.8381L36.1175 63.4413V42.2996C36.1175 38.8853 38.8853 36.1175 42.2996 36.1175L61.0279 36.1175C64.4422 36.1175 67.21 33.3497 67.21 29.9354L67.21 6.18214ZM205.732 4.15315e-06C202.318 4.75012e-06 199.55 2.76784 199.55 6.18214V29.9354C199.55 33.3497 202.318 36.1175 205.732 36.1175L224.46 36.1175C227.875 36.1175 230.642 38.8853 230.642 42.2996V63.4413V67.8381V95.1618V99.5588V120.7C230.642 124.115 227.875 126.882 224.46 126.882L205.732 126.883C202.318 126.883 199.55 129.65 199.55 133.065V156.818C199.55 160.232 202.318 163 205.732 163H229.485C232.9 163 235.667 160.232 235.667 156.818L235.667 137.461C235.667 134.047 238.435 131.279 241.85 131.279H260.578C263.992 131.279 266.76 128.511 266.76 125.097V99.5588L266.76 95.1618L266.76 67.8381L266.76 63.4412V37.9027C266.76 34.4884 263.992 31.7206 260.578 31.7206L241.85 31.7206C238.435 31.7206 235.667 28.9527 235.667 25.5384L235.667 6.18214C235.667 2.76784 232.9 0 229.485 0L205.732 4.15315e-06ZM66.4843 68.8569L131.661 40.4798C132.363 40.1741 133.161 40.1772 133.861 40.4885L197.649 68.8652C199.768 69.8079 199.822 72.7964 197.737 73.8141L157.999 93.2166V118.271C157.999 120.577 155.473 122.071 153.328 121.223C147.658 118.98 140.621 117.652 132.999 117.652C124.989 117.652 117.626 119.119 111.815 121.572C109.642 122.49 106.999 120.987 106.999 118.628V93.227L66.3969 73.8245C64.2852 72.8154 64.3384 69.7912 66.4843 68.8569Z" fill="#0A0A0A"/>
</svg>
